<svg width="43" height="28" viewBox="0 0 43 28" xmlns="http://www.w3.org/2000/svg">
    <g stroke="#FFF" stroke-width="2" fill="none" fill-rule="evenodd" stroke-linecap="round">
        <path d="M35.266 10.154h3.786c1.425 0 2.58 1.17 2.58 2.615v7.846c0 1.445-1.155 2.616-2.58 2.616H4.225c-1.425 0-2.58-1.171-2.58-2.616V12.77c0-1.444 1.155-2.615 2.58-2.615H6.72"/>
        <path d="M10.675 1h20.637a3.871 3.871 0 0 1 3.87 3.871v11.821h0H6.805V4.871A3.871 3.871 0 0 1 10.675 1zM20.994 16.038V1.654M4.87 23.885V26.5M38.408 23.885V26.5"/>
    </g>
</svg>
