<svg width="43" height="35" viewBox="0 0 43 35" xmlns="http://www.w3.org/2000/svg">
    <g transform="translate(1.44 1)" stroke="#FFF" stroke-width="2" fill="none" fill-rule="evenodd">
        <ellipse stroke-linecap="round" cx="11.996" cy="20.192" rx="11.996" ry="12.115"/>
        <path stroke-linecap="round" d="m9.155 24.849-2.557 4.456H4.22M14.839 24.654l2.47 4.651-1.235 2.305M17.077 20.126l5.556.066 1.185 1.584M14.839 15.228l2.47-4.519h2.147M9.332 15.228 6.598 10.71l.893-1.643M6.687 20.104l-5.294-.064-1.14-1.769M19.994.722c3.77 5.33 6.459 10.057 8.066 14.18 1.607 4.121 2.775 9.288 3.505 15.498M29.834 1.056c.134 4.377 1.035 8.479 2.704 12.304 1.669 3.825 3.724 6.7 6.166 8.625"/>
        <path d="M26.802 19.75c2.578-1.247 4.562-2.443 5.951-3.587 1.39-1.145 3.373-3.216 5.95-6.215M17.309 29.305h2.536M6.598 29.15l.909 2.227M22.633 20.192l1.185-1.876M17.43 10.71l-1.288-1.855" stroke-linecap="round"/>
        <path d="M21.868 32.166c.695.094 1.404.142 2.125.142 8.833 0 15.995-7.233 15.995-16.154C39.988 7.232 32.826 0 23.993 0c-4.116 0-7.868 1.57-10.702 4.148M6.687 10.71c-1.386.178-2.144.267-2.274.267M1.423 20.104l-1.17 2.204" stroke-linecap="round"/>
        <path d="m6.793 20.485 2.144 3.961a.77.77 0 0 0 .676.403l4.71.002a.77.77 0 0 0 .678-.406l2.118-3.963a.77.77 0 0 0 .005-.715L15 15.645a.77.77 0 0 0-.684-.417H9.621a.77.77 0 0 0-.682.414l-2.152 4.121a.77.77 0 0 0 .006.722z" stroke-linecap="square"/>
    </g>
</svg>
